# xmcd CD database file generated by Grip 3.3.1
# 
# Track frame offsets:
#       150
#       24480
#       38615
#       56460
#       76787
#       96180
#       126752
#       147362
#       168502
#       190082
#       200902
#       219705
#       240707
#       265942
#       305732
#       321467
#       336277
# 
# Disc length: 4631 seconds
# 
# Revision: 21
# Processed by: cddbd v1.5.2PL0 Copyright (c) Steve Scherf et al.
# Submitted via: Grip 3.3.1
# 
DISCID=fc121511
DTITLE=Stevie Ray Vaughan and Double Trouble - The Essential/Disc 2
DYEAR=2002
DGENRE=Rock
TTITLE0=Say What!
TTITLE1=Look at Little Sister
TTITLE2=Change It
TTITLE3=Come On (Part III)
TTITLE4=Life Without You
TTITLE5=Little Wing
TTITLE6=Willie the Wimp (Live)
TTITLE7=Superstition (Live)
TTITLE8=Leave My Girl Alone (Live)
TTITLE9=The House Is Rockin'
TTITLE10=Crossfire
TTITLE11=Tightrope
TTITLE12=Wall of Denial
TTITLE13=Riviera Paradise
TTITLE14=Telephone Song (The Vaughan Bros.)
TTITLE15=Long Way From Home (The Vaughan Bros.)
TTITLE16=Life by the Drop
EXTD=
EXTT0=YEAR: 1985
EXTT1=YEAR: 1985
EXTT2=YEAR: 1985
EXTT3=YEAR: 1985
EXTT4=YEAR: 1985
EXTT5=YEAR: 1985
EXTT6=YEAR: 1986
EXTT7=YEAR: 1986
EXTT8=YEAR: 1989
EXTT9=YEAR: 1989
EXTT10=YEAR: 1989
EXTT11=YEAR: 1989
EXTT12=YEAR: 1989
EXTT13=YEAR: 1989
EXTT14=YEAR: 1990
EXTT15=YEAR: 1990
EXTT16=YEAR: 1989
PLAYORDER=
